<?xml version="1.0" encoding="UTF-8" standalone="no"?>
<svg
   xmlns:dc="http://purl.org/dc/elements/1.1/"
   xmlns:cc="http://creativecommons.org/ns#"
   xmlns:rdf="http://www.w3.org/1999/02/22-rdf-syntax-ns#"
   xmlns:svg="http://www.w3.org/2000/svg"
   xmlns="http://www.w3.org/2000/svg"
   viewBox="0 0 291.76532 268.32666"
   height="268.32666"
   width="291.76532"
   xml:space="preserve"
   id="svg2"
   version="1.1"><rect width="100%" height="100%" fill="#FFFFFF"/><metadata
     id="metadata8"><rdf:RDF><cc:Work
         rdf:about=""><dc:format>image/svg+xml</dc:format><dc:type
           rdf:resource="http://purl.org/dc/dcmitype/StillImage" /></cc:Work></rdf:RDF></metadata><defs
     id="defs6"><clipPath
       id="clipPath186"
       clipPathUnits="userSpaceOnUse"><path
         id="path184"
         d="M 194.26988,-35.5977 V 49.46039 L 142.42961,105.4257 0,85.0581 V 0 l 51.84026,-55.96532 z" /></clipPath></defs><g
     transform="matrix(1.3333333,0,0,-1.3333333,0,268.32667)"
     id="g10"><g
       transform="translate(24.357,18.182)"
       id="g12"><g
         id="g14"><g
           id="g16"><g
             id="g18" /><g
             id="g20" /><g
             id="g22"><g
               id="g24" /></g><g
             id="g26" /><g
             id="g28" /><g
             id="g30" /><g
             id="g32" /><g
             transform="translate(-24.357,-18.182)"
             id="g34"><g
               transform="translate(24.357,74.147)"
               id="g36"><g
                 id="g38"><g
                   id="g40"><g
                     id="g42"><g
                       id="g44"><g
                         id="g46"><path
                           id="path48"
                           style="fill:none;stroke:#808080;stroke-width:0.19925;stroke-linecap:butt;stroke-linejoin:miter;stroke-miterlimit:10;stroke-dasharray:none;stroke-opacity:1"
                           d="m 17.28008,-18.6551 4.20878,0.60185 M 159.7097,1.7125 155.5009,1.11063" /></g></g><g
                       id="g50"><g
                         id="g52"><path
                           id="path54"
                           style="fill:none;stroke:#808080;stroke-width:0.19925;stroke-linecap:butt;stroke-linejoin:miter;stroke-miterlimit:10;stroke-dasharray:none;stroke-opacity:1"
                           d="m 47.47653,6.7892 2.88956,-3.11949 m 48.95071,-52.84583 -2.88958,3.11951" /></g></g><path
                       id="path56"
                       style="fill:none;stroke:#000000;stroke-width:0.3985;stroke-linecap:butt;stroke-linejoin:miter;stroke-miterlimit:10;stroke-dasharray:none;stroke-opacity:1"
                       d="M 0,0 51.84026,-55.96532" /><path
                       id="path58"
                       style="fill:none;stroke:#000000;stroke-width:0.3985;stroke-linecap:butt;stroke-linejoin:miter;stroke-miterlimit:10;stroke-dasharray:none;stroke-opacity:1"
                       d="m 142.42961,20.3676 51.84027,-55.9653" /><path
                       id="path60"
                       style="fill:none;stroke:#000000;stroke-width:0.3985;stroke-linecap:butt;stroke-linejoin:miter;stroke-miterlimit:10;stroke-dasharray:none;stroke-opacity:1"
                       d="M 0,0 142.42961,20.3676" /><path
                       id="path62"
                       style="fill:none;stroke:#000000;stroke-width:0.3985;stroke-linecap:butt;stroke-linejoin:miter;stroke-miterlimit:10;stroke-dasharray:none;stroke-opacity:1"
                       d="M 51.84026,-55.96532 194.26988,-35.5977" /><g
                       id="g64"><g
                         transform="translate(8.869,-28.693)"
                         id="g66"><g
                           id="g68"><g
                             transform="translate(-33.226,-45.454)"
                             id="g70"><text
                               id="text74"
                               style="font-variant:normal;font-weight:normal;font-size:9.96259975px;font-family:CMR10;-inkscape-font-specification:CMR10;writing-mode:lr-tb;fill:#000000;fill-opacity:1;fill-rule:nonzero;stroke:none"
                               transform="matrix(1,0,0,-1,33.226,45.454)"><tspan
                                 id="tspan72"
                                 y="0"
                                 x="0">0</tspan></text>
<g
                               transform="translate(33.226,45.454)"
                               id="g76" /></g></g><g
                           transform="translate(-8.869,28.693)"
                           id="g78" /></g></g><g
                       id="g80"><g
                         transform="translate(99.642,-59.572)"
                         id="g82"><g
                           id="g84"><g
                             transform="translate(-123.999,-14.575)"
                             id="g86"><text
                               id="text90"
                               style="font-variant:normal;font-weight:normal;font-size:9.96259975px;font-family:CMR10;-inkscape-font-specification:CMR10;writing-mode:lr-tb;fill:#000000;fill-opacity:1;fill-rule:nonzero;stroke:none"
                               transform="matrix(1,0,0,-1,123.999,14.575)"><tspan
                                 id="tspan88"
                                 y="0"
                                 x="0">0</tspan></text>
<g
                               transform="translate(123.999,14.575)"
                               id="g92" /></g></g><g
                           transform="translate(-99.642,59.572)"
                           id="g94" /></g></g><g
                       id="g96"><g
                         id="g98"><path
                           id="path100"
                           style="fill:none;stroke:#808080;stroke-width:0.19925;stroke-linecap:butt;stroke-linejoin:miter;stroke-miterlimit:10;stroke-dasharray:none;stroke-opacity:1"
                           d="m 159.7097,86.7706 -4.2088,-0.60185" /></g></g><g
                       id="g102"><g
                         id="g104"><path
                           id="path106"
                           style="fill:none;stroke:#808080;stroke-width:0.19925;stroke-linecap:butt;stroke-linejoin:miter;stroke-miterlimit:10;stroke-dasharray:none;stroke-opacity:1"
                           d="m 47.47653,91.8473 2.88956,-3.11949" /></g></g><path
                       id="path108"
                       style="fill:none;stroke:#000000;stroke-width:0.3985;stroke-linecap:butt;stroke-linejoin:miter;stroke-miterlimit:10;stroke-dasharray:none;stroke-opacity:1"
                       d="M 142.42961,105.4257 194.26988,49.46039" /><path
                       id="path110"
                       style="fill:none;stroke:#000000;stroke-width:0.3985;stroke-linecap:butt;stroke-linejoin:miter;stroke-miterlimit:10;stroke-dasharray:none;stroke-opacity:1"
                       d="m 0,85.0581 142.42961,20.3676" /><g
                       id="g112"><g
                         id="g114"><path
                           id="path116"
                           style="fill:none;stroke:#808080;stroke-width:0.19925;stroke-linecap:butt;stroke-linejoin:miter;stroke-miterlimit:10;stroke-dasharray:none;stroke-opacity:1"
                           d="m 47.47653,6.7892 v 4.25182 m 0,80.80628 v -4.25184" /></g></g><g
                       id="g118"><g
                         id="g120"><path
                           id="path122"
                           style="fill:none;stroke:#808080;stroke-width:0.19925;stroke-linecap:butt;stroke-linejoin:miter;stroke-miterlimit:10;stroke-dasharray:none;stroke-opacity:1"
                           d="m 0,42.52905 4.20877,0.60184 m 138.22084,19.76576 -4.20878,-0.60185" /></g></g><path
                       id="path124"
                       style="fill:none;stroke:#000000;stroke-width:0.3985;stroke-linecap:butt;stroke-linejoin:miter;stroke-miterlimit:10;stroke-dasharray:none;stroke-opacity:1"
                       d="M 0,0 V 85.0581" /><path
                       id="path126"
                       style="fill:none;stroke:#000000;stroke-width:0.3985;stroke-linecap:butt;stroke-linejoin:miter;stroke-miterlimit:10;stroke-dasharray:none;stroke-opacity:1"
                       d="m 142.42961,20.3676 v 85.0581" /><g
                       id="g128"><g
                         transform="translate(-8.5,41.45)"
                         id="g130"><g
                           id="g132"><g
                             transform="translate(-15.857,-115.597)"
                             id="g134"><text
                               id="text138"
                               style="font-variant:normal;font-weight:normal;font-size:9.96259975px;font-family:CMR10;-inkscape-font-specification:CMR10;writing-mode:lr-tb;fill:#000000;fill-opacity:1;fill-rule:nonzero;stroke:none"
                               transform="matrix(1,0,0,-1,15.857,115.597)"><tspan
                                 id="tspan136"
                                 y="0"
                                 x="0">0</tspan></text>
<g
                               transform="translate(15.857,115.597)"
                               id="g140" /></g></g><g
                           transform="translate(8.5,-41.45)"
                           id="g142" /></g></g><g
                       id="g144"><g
                         id="g146"><path
                           id="path148"
                           style="fill:none;stroke:#808080;stroke-width:0.19925;stroke-linecap:butt;stroke-linejoin:miter;stroke-miterlimit:10;stroke-dasharray:none;stroke-opacity:1"
                           d="m 99.3168,-49.17612 v 4.25183" /></g></g><g
                       id="g150"><g
                         id="g152"><path
                           id="path154"
                           style="fill:none;stroke:#808080;stroke-width:0.19925;stroke-linecap:butt;stroke-linejoin:miter;stroke-miterlimit:10;stroke-dasharray:none;stroke-opacity:1"
                           d="m 194.26988,6.93134 -4.2088,-0.60187" /></g></g><path
                       id="path156"
                       style="fill:none;stroke:#000000;stroke-width:0.3985;stroke-linecap:butt;stroke-linejoin:miter;stroke-miterlimit:10;stroke-dasharray:none;stroke-opacity:1"
                       d="M 194.26988,-35.5977 V 49.46039" /><g
                       id="g158"><g
                         id="g160"><path
                           id="path162"
                           style="fill:none;stroke:#808080;stroke-width:0.19925;stroke-linecap:butt;stroke-linejoin:miter;stroke-miterlimit:10;stroke-dasharray:none;stroke-opacity:1"
                           d="m 17.28008,-18.6551 v 4.25183" /></g></g><g
                       id="g164"><g
                         id="g166"><path
                           id="path168"
                           style="fill:none;stroke:#808080;stroke-width:0.19925;stroke-linecap:butt;stroke-linejoin:miter;stroke-miterlimit:10;stroke-dasharray:none;stroke-opacity:1"
                           d="M 0,42.52905 2.88956,39.40956" /></g></g><g
                       id="g170"><g
                         id="g172"><path
                           id="path174"
                           style="fill:none;stroke:#808080;stroke-width:0.19925;stroke-linecap:butt;stroke-linejoin:miter;stroke-miterlimit:10;stroke-dasharray:none;stroke-opacity:1"
                           d="m 159.7097,1.7125 v 4.25182 m 0,80.80628 v -4.25183" /></g></g><g
                       id="g176"><g
                         id="g178"><path
                           id="path180"
                           style="fill:none;stroke:#808080;stroke-width:0.19925;stroke-linecap:butt;stroke-linejoin:miter;stroke-miterlimit:10;stroke-dasharray:none;stroke-opacity:1"
                           d="m 142.42961,62.89665 2.88956,-3.11949 m 48.95071,-52.84582 -2.88958,3.1195" /></g></g><g
                       clip-path="url(#clipPath186)"
                       id="g182"><g
                         id="g188"><path
                           id="path190"
                           style="fill:none;stroke:#ff0000;stroke-width:0.3985;stroke-linecap:butt;stroke-linejoin:miter;stroke-miterlimit:10;stroke-dasharray:none;stroke-opacity:1"
                           d="m 194.26988,-35.5977 -3.26747,2.47523 -3.20726,2.40817 -3.14789,2.34226 -3.08922,2.27744 -3.0315,2.2138 -2.97455,2.1513 -2.91834,2.08982 -2.86297,2.02959 -2.8084,1.97037 -2.75455,1.91226 -2.70143,1.85521 -2.64915,1.79925 -2.59758,1.7444 -2.54671,1.6905 -2.49661,1.63773 -2.44725,1.58599 -2.3985,1.53523 -2.3506,1.48555 -2.30327,1.43678 -2.2567,1.38912 -2.21073,1.34237 -2.1655,1.29665 -2.12093,1.25188 -2.07692,1.20807 -2.03369,1.16522 -1.991,1.12332 -1.94894,1.08232 -1.90755,1.04228 -1.86676,1.00318 -1.82649,0.96496 -1.78688,0.9276 -1.74788,0.8912 -1.7094,0.85561 -1.67149,0.82095 -1.63419,0.78713 -1.59738,0.75415 -1.56116,0.72204 -1.52542,0.69072 -1.49026,0.6603 -1.4556,0.6306 -1.42142,0.60179 -1.38775,0.57374 -1.3546,0.54648 -1.32187,0.52002 -1.28971,0.4943 -1.25791,0.46937 -1.22667,0.44516 -1.1958,0.42172 -1.16541,0.39904 -1.13542,0.37703 -1.10588,0.35575 -1.07674,0.33518 -1.048,0.31534 -1.01968,0.29611 -0.99174,0.27765 -0.96418,0.25979 -0.93698,0.24263 -0.91018,0.22615 -0.88371,0.21024 -0.85757,0.19499 -0.83179,0.18039 -0.80632,0.16638 -0.78121,0.15299 -0.75639,0.1402 -0.73189,0.12797 -0.70765,0.11636 -0.68372,0.10528 -0.66007,0.09478 -0.63668,0.08482 -0.61357,0.07543 -0.59072,0.06654 -0.5681,0.0582 -0.54571,0.05037 -0.52353,0.04303 -0.50163,0.03619 -0.47992,0.02987 -0.45838,0.02397 -0.43707,0.01857 -0.41592,0.01367 -0.39493,0.0091 -0.37419,0.0051 -0.35355,0.0015 -0.33307,-0.0017 -0.31273,-0.0045 -0.29252,-0.0069 -0.27245,-0.0088 -0.25249,-0.01041 -0.23268,-0.01161 -0.2129,-0.01246 -0.19329,-0.01294 -0.1737,-0.01308 -0.15424,-0.01286 -0.1348,-0.0123 -0.11543,-0.01146 -0.09613,-0.0103 -0.07686,-0.0088 -0.05763,-0.007 -0.03842,-0.0049 -0.01923,-0.0026 -4e-5,1e-5 0.01915,0.0029 0.03831,0.006 0.05753,0.0094 0.07675,0.01294 0.09605,0.01677 0.11536,0.0208 0.1347,0.02501 0.15413,0.02945 0.17359,0.03405 0.19319,0.03887 0.21285,0.04382 0.23252,0.04892 0.25241,0.05419 0.27234,0.0596 0.29245,0.06512 0.31265,0.07082 0.33293,0.07655 0.35348,0.08246 0.37402,0.08839 0.3949,0.0945 0.41583,0.10059 0.43692,0.10679 0.45831,0.11309 0.47974,0.11933 0.50154,0.12574 0.52348,0.13208 0.54554,0.13849 0.56802,0.14489 0.59056,0.15132 0.6135,0.15773 0.63661,0.16413 0.65989,0.17046 0.68366,0.17684 0.70746,0.18311 0.73181,0.18936 0.75632,0.19554 0.78099,0.20163 0.80626,0.20769 0.8316,0.21362 0.8575,0.2195 0.88362,0.22523 0.90994,0.23082 0.93694,0.23638 0.96394,0.24165 0.99167,0.24697 1.01961,0.25202 1.04776,0.25689 1.07667,0.26167 1.10564,0.2662 1.13536,0.2706 1.1653,0.2748 1.19554,0.27868 1.22656,0.28252 1.25766,0.286 1.28961,0.28932 1.32184,0.29239 1.35428,0.29512 1.3877,0.29771 1.42112,0.29993 1.45552,0.30197 1.49013,0.30365 1.52515,0.30499 1.56108,0.30616 1.59703,0.30687 1.63409,0.30735 1.67144,0.30747 1.70906,0.3072 1.74777,0.30667 1.78654,0.30567 1.82645,0.30441 1.86661,0.3027 1.90716,0.30056 1.94889,0.29815 1.99061,0.29517 2.03356,0.29193 2.07689,0.28819 2.12049,0.28397 2.16538,0.2794 2.21037,0.27431 2.25659,0.26878 2.30315,0.26282 2.35014,0.25626 2.39847,0.24934 2.44672,0.24182 2.49653,0.23389 2.54667,0.22539 2.59704,0.21631 2.64907,0.2068 2.70095,0.19665 2.75446,0.18602 2.80824,0.17478 2.86245,0.16298 2.91828,0.15065 2.97396,0.13762 3.03141,0.12408 3.08919,0.10993 3.14723,0.09507 3.20716,0.07971 3.2669,0.06362" /></g></g></g><g
                     id="g192"><g
                       transform="translate(5.812,-50.034)"
                       id="g194"><g
                         id="g196"><g
                           transform="translate(-30.169,-24.113)"
                           id="g198"><text
                             id="text202"
                             style="font-variant:normal;font-weight:normal;font-size:9.96259975px;font-family:CMMI10;-inkscape-font-specification:CMMI10;writing-mode:lr-tb;fill:#000000;fill-opacity:1;fill-rule:nonzero;stroke:none"
                             transform="matrix(1,0,0,-1,30.169,24.113)"><tspan
                               id="tspan200"
                               y="0"
                               x="0">x</tspan></text>
<g
                             transform="translate(30.169,24.113)"
                             id="g204" /></g></g><g
                         transform="translate(-5.812,50.034)"
                         id="g206" /></g></g><g
                     id="g208"><g
                       transform="translate(129.03,-68.889)"
                       id="g210"><g
                         id="g212"><g
                           transform="translate(-153.387,-5.258)"
                           id="g214"><text
                             id="text218"
                             style="font-variant:normal;font-weight:normal;font-size:9.96259975px;font-family:CMMI10;-inkscape-font-specification:CMMI10;writing-mode:lr-tb;fill:#000000;fill-opacity:1;fill-rule:nonzero;stroke:none"
                             transform="matrix(1,0,0,-1,153.387,5.258)"><tspan
                               id="tspan216"
                               y="0"
                               x="0">y</tspan></text>
<g
                             transform="translate(153.387,5.258)"
                             id="g220" /></g></g><g
                         transform="translate(-129.03,68.889)"
                         id="g222" /></g></g><g
                     id="g224"><g
                       transform="rotate(90,-31.7205,14.9735)"
                       id="g226"><g
                         id="g228"><g
                           transform="translate(-7.61,-120.841)"
                           id="g230"><text
                             id="text234"
                             style="font-variant:normal;font-weight:normal;font-size:9.96259975px;font-family:CMMI10;-inkscape-font-specification:CMMI10;writing-mode:lr-tb;fill:#000000;fill-opacity:1;fill-rule:nonzero;stroke:none"
                             transform="matrix(1,0,0,-1,7.61,120.841)"><tspan
                               id="tspan232"
                               y="0"
                               x="0">z</tspan></text>
<g
                             transform="translate(7.61,120.841)"
                             id="g236" /></g></g><g
                         transform="translate(16.747,-46.694)"
                         id="g238" /></g></g><g
                     id="g240"><g
                       transform="translate(54.751,116.859)"
                       id="g242"><g
                         id="g244"><g
                           transform="translate(-79.108,-191.006)"
                           id="g246"><text
                             id="text250"
                             style="font-variant:normal;font-weight:normal;font-size:9.96259975px;font-family:CMR10;-inkscape-font-specification:CMR10;writing-mode:lr-tb;fill:#000000;fill-opacity:1;fill-rule:nonzero;stroke:none"
                             transform="matrix(1,0,0,-1,79.108,191.006)"><tspan
                               id="tspan248"
                               y="0"
                               x="0 8.2988462 13.834066 18.815367 24.350588 27.671122 31.573471 36.000851 40.982151 46.517372 49.284981 54.266281 61.49614 65.923523 71.45874 75.361092 80.340401">anon-regularcurve</tspan></text>
<g
                             transform="translate(79.108,191.006)"
                             id="g252" /></g></g><g
                         transform="translate(-54.751,-116.859)"
                         id="g254" /></g></g><g
                     id="g256"><g
                       id="g258"><path
                         id="path260"
                         style="fill:#ffffff;fill-opacity:1;fill-rule:nonzero;stroke:#000000;stroke-width:0.3985;stroke-linecap:butt;stroke-linejoin:miter;stroke-miterlimit:10;stroke-dasharray:none;stroke-opacity:1"
                         d="m 90.96883,84.42366 h 99.21555 v 17.57426 H 90.96883 Z" /></g><g
                       transform="translate(93.957,93.21)"
                       id="g262"><g
                         transform="translate(0.199)"
                         id="g264"><g
                           id="g266"><g
                             id="g268"><path
                               id="path270"
                               style="fill:none;stroke:#ff0000;stroke-width:0.3985;stroke-linecap:butt;stroke-linejoin:miter;stroke-miterlimit:10;stroke-dasharray:none;stroke-opacity:1"
                               d="m 0,0 h 8.50412 8.50414" /></g></g><g
                           transform="translate(55.122)"
                           id="g272"><g
                             id="g274"><g
                               id="g276"><g
                                 transform="translate(-35.922,-3.308)"
                                 id="g278"><g
                                   id="g280"><g
                                   transform="translate(-137.713,-164.049)"
                                   id="g282"><text
                                   id="text286"
                                   style="font-variant:normal;font-weight:normal;font-size:9.96259975px;font-family:CMMI10;-inkscape-font-specification:CMMI10;writing-mode:lr-tb;fill:#000000;fill-opacity:1;fill-rule:nonzero;stroke:none"
                                   transform="matrix(1,0,0,-1,137.713,164.049)"><tspan
                                   id="tspan284"
                                   y="0"
                                   x="0">α</tspan></text>
<text
                                   id="text290"
                                   style="font-variant:normal;font-weight:normal;font-size:9.96259975px;font-family:CMR10;-inkscape-font-specification:CMR10;writing-mode:lr-tb;fill:#000000;fill-opacity:1;fill-rule:nonzero;stroke:none"
                                   transform="matrix(1,0,0,-1,144.123,164.049)"><tspan
                                   id="tspan288"
                                   y="0"
                                   x="0">(</tspan></text>
<text
                                   id="text294"
                                   style="font-variant:normal;font-weight:normal;font-size:9.96259975px;font-family:CMMI10;-inkscape-font-specification:CMMI10;writing-mode:lr-tb;fill:#000000;fill-opacity:1;fill-rule:nonzero;stroke:none"
                                   transform="matrix(1,0,0,-1,147.997,164.049)"><tspan
                                   id="tspan292"
                                   y="0"
                                   x="0">t</tspan></text>
<text
                                   id="text298"
                                   style="font-variant:normal;font-weight:normal;font-size:9.96259975px;font-family:CMR10;-inkscape-font-specification:CMR10;writing-mode:lr-tb;fill:#000000;fill-opacity:1;fill-rule:nonzero;stroke:none"
                                   transform="matrix(1,0,0,-1,151.595,164.049)"><tspan
                                   id="tspan296"
                                   y="0"
                                   x="0 6.6440578 17.162571">)=(</tspan></text>
<text
                                   id="text302"
                                   style="font-variant:normal;font-weight:normal;font-size:9.96259975px;font-family:CMMI10;-inkscape-font-specification:CMMI10;writing-mode:lr-tb;fill:#000000;fill-opacity:1;fill-rule:nonzero;stroke:none"
                                   transform="matrix(1,0,0,-1,172.627,164.049)"><tspan
                                   id="tspan300"
                                   y="0"
                                   x="0">t</tspan></text>
<text
                                   id="text306"
                                   style="font-variant:normal;font-weight:normal;font-size:6.97380018px;font-family:CMR7;-inkscape-font-specification:CMR7;writing-mode:lr-tb;fill:#000000;fill-opacity:1;fill-rule:nonzero;stroke:none"
                                   transform="matrix(1,0,0,-1,176.225,167.664)"><tspan
                                   id="tspan304"
                                   y="0"
                                   x="0">4</tspan></text>
<text
                                   id="text310"
                                   style="font-variant:normal;font-weight:normal;font-size:9.96259975px;font-family:CMMI10;-inkscape-font-specification:CMMI10;writing-mode:lr-tb;fill:#000000;fill-opacity:1;fill-rule:nonzero;stroke:none"
                                   transform="matrix(1,0,0,-1,180.694,164.049)"><tspan
                                   id="tspan308"
                                   y="0"
                                   x="0 4.4313645">,t</tspan></text>
<text
                                   id="text314"
                                   style="font-variant:normal;font-weight:normal;font-size:6.97380018px;font-family:CMR7;-inkscape-font-specification:CMR7;writing-mode:lr-tb;fill:#000000;fill-opacity:1;fill-rule:nonzero;stroke:none"
                                   transform="matrix(1,0,0,-1,188.719,167.664)"><tspan
                                   id="tspan312"
                                   y="0"
                                   x="0">2</tspan></text>
<text
                                   id="text318"
                                   style="font-variant:normal;font-weight:normal;font-size:9.96259975px;font-family:CMMI10;-inkscape-font-specification:CMMI10;writing-mode:lr-tb;fill:#000000;fill-opacity:1;fill-rule:nonzero;stroke:none"
                                   transform="matrix(1,0,0,-1,193.189,164.049)"><tspan
                                   id="tspan316"
                                   y="0"
                                   x="0 4.4313645">,t</tspan></text>
<text
                                   id="text322"
                                   style="font-variant:normal;font-weight:normal;font-size:6.97380018px;font-family:CMR7;-inkscape-font-specification:CMR7;writing-mode:lr-tb;fill:#000000;fill-opacity:1;fill-rule:nonzero;stroke:none"
                                   transform="matrix(1,0,0,-1,201.214,167.664)"><tspan
                                   id="tspan320"
                                   y="0"
                                   x="0">3</tspan></text>
<text
                                   id="text326"
                                   style="font-variant:normal;font-weight:normal;font-size:9.96259975px;font-family:CMR10;-inkscape-font-specification:CMR10;writing-mode:lr-tb;fill:#000000;fill-opacity:1;fill-rule:nonzero;stroke:none"
                                   transform="matrix(1,0,0,-1,205.684,164.049)"><tspan
                                   id="tspan324"
                                   y="0"
                                   x="0">)</tspan></text>
<g
                                   transform="translate(137.713,164.049)"
                                   id="g328" /></g></g><g
                                   transform="translate(35.922,3.308)"
                                   id="g330" /></g></g></g><g
                             transform="translate(-55.321)"
                             id="g332" /></g></g><g
                         transform="translate(-93.957,-93.21)"
                         id="g334" /></g></g></g></g><g
                 transform="translate(-24.357,-74.147)"
                 id="g336" /></g><g
               transform="translate(24.357,18.182)"
               id="g338" /></g><g
             id="g340" /><g
             id="g342" /></g></g></g></g></svg>